HIERARCHY
ROOT Hips
{
	OFFSET 0.000000 0.000000 0.000000
	CHANNELS 6 Xposition Yposition Zposition Zrotation Yrotation Xrotation 
	JOINT Spine1
	{
		OFFSET -0.013727 5.003763 -0.053727
		CHANNELS 3 Zrotation Yrotation Xrotation
		JOINT Spine2
		{
			OFFSET -0.000000 7.125303 -0.029825
			CHANNELS 3 Zrotation Yrotation Xrotation
			JOINT Chest
			{
				OFFSET -0.000001 7.550062 -0.815971
				CHANNELS 3 Zrotation Yrotation Xrotation
				JOINT Neck1
				{
					OFFSET -0.181677 26.311296 -0.553349
					CHANNELS 3 Zrotation Yrotation Xrotation
					JOINT Neck2
					{
						OFFSET -0.000003 7.709399 2.302586
						CHANNELS 3 Zrotation Yrotation Xrotation
						JOINT Head
						{
							OFFSET -0.000005 6.128912 1.953708
							CHANNELS 3 Zrotation Yrotation Xrotation
							JOINT HeadEnd
							{
								OFFSET 0.003598 16.065401 -1.835379
								CHANNELS 3 Zrotation Yrotation Xrotation
								End Site
								{
									OFFSET 0.000000 0.000000 0.000000
								}
							}
							JOINT Jaw
							{
								OFFSET 0.002637 0.475593 3.094941
								CHANNELS 3 Zrotation Yrotation Xrotation
								End Site
								{
									OFFSET 0.000000 0.000000 0.000000
								}
							}
							JOINT LeftEye
							{
								OFFSET 3.206381 5.380209 7.586883
								CHANNELS 3 Zrotation Yrotation Xrotation
								End Site
								{
									OFFSET 0.000000 0.000000 0.000000
								}
							}
							JOINT RightEye
							{
								OFFSET -3.222440 5.361867 7.558233
								CHANNELS 3 Zrotation Yrotation Xrotation
								End Site
								{
									OFFSET 0.000000 0.000000 0.000000
								}
							}
						}
					}
				}
				JOINT LeftShoulder
				{
					OFFSET 1.621652 23.237164 5.113413
					CHANNELS 3 Zrotation Yrotation Xrotation
					JOINT LeftArm
					{
						OFFSET 14.919845 -0.000001 -5.502326
						CHANNELS 3 Zrotation Yrotation Xrotation
						JOINT LeftForeArm
						{
							OFFSET 28.739309 0.000002 -0.002588
							CHANNELS 3 Zrotation Yrotation Xrotation
							JOINT LeftHand
							{
								OFFSET 27.093979 -0.000002 0.002609
								CHANNELS 3 Zrotation Yrotation Xrotation
								JOINT LeftHandThumb1
								{
									OFFSET 2.276479 -1.392046 3.191412
									CHANNELS 3 Zrotation Yrotation Xrotation
									JOINT LeftHandThumb2
									{
										OFFSET 4.012843 -1.828125 1.641656
										CHANNELS 3 Zrotation Yrotation Xrotation
										JOINT LeftHandThumb3
										{
											OFFSET 2.798517 0.000000 -0.000003
											CHANNELS 3 Zrotation Yrotation Xrotation
											JOINT LeftHandThumbEnd
											{
												OFFSET 3.180791 -0.000003 0.000002
												CHANNELS 3 Zrotation Yrotation Xrotation
												End Site
												{
													OFFSET 0.000000 0.000000 0.000000
												}
											}
										}
									}
								}
								JOINT LeftHandIndex1
								{
									OFFSET 3.247554 -0.531998 2.296169
									CHANNELS 3 Zrotation Yrotation Xrotation
									JOINT LeftHandIndex2
									{
										OFFSET 6.364578 0.012062 0.178599
										CHANNELS 3 Zrotation Yrotation Xrotation
										JOINT LeftHandIndex3
										{
											OFFSET 3.662366 0.000001 0.000000
											CHANNELS 3 Zrotation Yrotation Xrotation
											JOINT LeftHandIndex4
											{
												OFFSET 2.329243 0.000003 0.000004
												CHANNELS 3 Zrotation Yrotation Xrotation
												JOINT LeftHandIndexEnd
												{
													OFFSET 2.759619 -0.180539 -0.113024
													CHANNELS 3 Zrotation Yrotation Xrotation
													End Site
													{
														OFFSET 0.000000 0.000000 0.000000
													}
												}
											}
										}
									}
								}
								JOINT LeftHandMiddle1
								{
									OFFSET 3.163499 0.240982 1.000332
									CHANNELS 3 Zrotation Yrotation Xrotation
									JOINT LeftHandMiddle2
									{
										OFFSET 6.190778 -0.259276 -1.002548
										CHANNELS 3 Zrotation Yrotation Xrotation
										JOINT LeftHandMiddle3
										{
											OFFSET 4.356523 -0.000006 0.000000
											CHANNELS 3 Zrotation Yrotation Xrotation
											JOINT LeftHandMiddle4
											{
												OFFSET 2.996874 -0.000007 0.000001
												CHANNELS 3 Zrotation Yrotation Xrotation
												JOINT LeftHandMiddleEnd
												{
													OFFSET 2.304294 -0.294571 -0.031740
													CHANNELS 3 Zrotation Yrotation Xrotation
													End Site
													{
														OFFSET 0.000000 0.000000 0.000000
													}
												}
											}
										}
									}
								}
								JOINT LeftHandRing1
								{
									OFFSET 2.882642 -0.053650 -0.322544
									CHANNELS 3 Zrotation Yrotation Xrotation
									JOINT LeftHandRing2
									{
										OFFSET 5.854543 -0.486203 -1.373841
										CHANNELS 3 Zrotation Yrotation Xrotation
										JOINT LeftHandRing3
										{
											OFFSET 4.350580 0.000000 0.000003
											CHANNELS 3 Zrotation Yrotation Xrotation
											JOINT LeftHandRing4
											{
												OFFSET 2.651324 0.000007 0.000003
												CHANNELS 3 Zrotation Yrotation Xrotation
												JOINT LeftHandRingEnd
												{
													OFFSET 1.936111 0.077686 -0.000070
													CHANNELS 3 Zrotation Yrotation Xrotation
													End Site
													{
														OFFSET 0.000000 0.000000 0.000000
													}
												}
											}
										}
									}
								}
								JOINT LeftHandPinky1
								{
									OFFSET 2.865499 -0.310004 -1.600378
									CHANNELS 3 Zrotation Yrotation Xrotation
									JOINT LeftHandPinky2
									{
										OFFSET 5.087853 -1.331141 -1.771231
										CHANNELS 3 Zrotation Yrotation Xrotation
										JOINT LeftHandPinky3
										{
											OFFSET 3.070975 0.000003 0.000000
											CHANNELS 3 Zrotation Yrotation Xrotation
											JOINT LeftHandPinky4
											{
												OFFSET 1.549668 0.000001 0.000001
												CHANNELS 3 Zrotation Yrotation Xrotation
												JOINT LeftHandPinkyEnd
												{
													OFFSET 1.944894 -0.157802 0.057219
													CHANNELS 3 Zrotation Yrotation Xrotation
													End Site
													{
														OFFSET 0.000000 0.000000 0.000000
													}
												}
											}
										}
									}
								}
							}
						}
					}
				}
				JOINT RightShoulder
				{
					OFFSET -1.380118 23.180307 5.214158
					CHANNELS 3 Zrotation Yrotation Xrotation
					JOINT RightArm
					{
						OFFSET -15.037197 0.000012 -5.545604
						CHANNELS 3 Zrotation Yrotation Xrotation
						JOINT RightForeArm
						{
							OFFSET -28.736639 0.000004 -0.002597
							CHANNELS 3 Zrotation Yrotation Xrotation
							JOINT RightHand
							{
								OFFSET -27.133617 -0.000000 0.002613
								CHANNELS 3 Zrotation Yrotation Xrotation
								JOINT RightHandThumb1
								{
									OFFSET -2.274037 -1.383990 3.163127
									CHANNELS 3 Zrotation Yrotation Xrotation
									JOINT RightHandThumb2
									{
										OFFSET -4.011427 -1.827468 1.640914
										CHANNELS 3 Zrotation Yrotation Xrotation
										JOINT RightHandThumb3
										{
											OFFSET -2.794935 -0.000002 -0.000003
											CHANNELS 3 Zrotation Yrotation Xrotation
											JOINT RightHandThumbEnd
											{
												OFFSET -3.183854 0.000002 -0.000001
												CHANNELS 3 Zrotation Yrotation Xrotation
												End Site
												{
													OFFSET 0.000000 0.000000 0.000000
												}
											}
										}
									}
								}
								JOINT RightHandIndex1
								{
									OFFSET -3.253269 -0.520059 2.282866
									CHANNELS 3 Zrotation Yrotation Xrotation
									JOINT RightHandIndex2
									{
										OFFSET -6.341918 0.012473 0.178265
										CHANNELS 3 Zrotation Yrotation Xrotation
										JOINT RightHandIndex3
										{
											OFFSET -3.654874 -0.000008 -0.000000
											CHANNELS 3 Zrotation Yrotation Xrotation
											JOINT RightHandIndex4
											{
												OFFSET -2.327586 0.000000 0.000001
												CHANNELS 3 Zrotation Yrotation Xrotation
												JOINT RightHandIndexEnd
												{
													OFFSET -2.761789 -0.180658 -0.113078
													CHANNELS 3 Zrotation Yrotation Xrotation
													End Site
													{
														OFFSET 0.000000 0.000000 0.000000
													}
												}
											}
										}
									}
								}
								JOINT RightHandMiddle1
								{
									OFFSET -3.168106 0.246593 1.001031
									CHANNELS 3 Zrotation Yrotation Xrotation
									JOINT RightHandMiddle2
									{
										OFFSET -6.180830 -0.258835 -1.000896
										CHANNELS 3 Zrotation Yrotation Xrotation
										JOINT RightHandMiddle3
										{
											OFFSET -4.348905 -0.000001 -0.000001
											CHANNELS 3 Zrotation Yrotation Xrotation
											JOINT RightHandMiddle4
											{
												OFFSET -3.000243 -0.000003 -0.000002
												CHANNELS 3 Zrotation Yrotation Xrotation
												JOINT RightHandMiddleEnd
												{
													OFFSET -2.302518 -0.294373 -0.031706
													CHANNELS 3 Zrotation Yrotation Xrotation
													End Site
													{
														OFFSET 0.000000 0.000000 0.000000
													}
												}
											}
										}
									}
								}
								JOINT RightHandRing1
								{
									OFFSET -2.885693 -0.067952 -0.308858
									CHANNELS 3 Zrotation Yrotation Xrotation
									JOINT RightHandRing2
									{
										OFFSET -5.854197 -0.486132 -1.373732
										CHANNELS 3 Zrotation Yrotation Xrotation
										JOINT RightHandRing3
										{
											OFFSET -4.338814 -0.000003 -0.000000
											CHANNELS 3 Zrotation Yrotation Xrotation
											JOINT RightHandRing4
											{
												OFFSET -2.654906 -0.000003 0.000004
												CHANNELS 3 Zrotation Yrotation Xrotation
												JOINT RightHandRingEnd
												{
													OFFSET -1.933570 0.077522 -0.000052
													CHANNELS 3 Zrotation Yrotation Xrotation
													End Site
													{
														OFFSET 0.000000 0.000000 0.000000
													}
												}
											}
										}
									}
								}
								JOINT RightHandPinky1
								{
									OFFSET -2.866429 -0.342799 -1.584145
									CHANNELS 3 Zrotation Yrotation Xrotation
									JOINT RightHandPinky2
									{
										OFFSET -5.091370 -1.332054 -1.772385
										CHANNELS 3 Zrotation Yrotation Xrotation
										JOINT RightHandPinky3
										{
											OFFSET -3.062666 -0.000007 0.000000
											CHANNELS 3 Zrotation Yrotation Xrotation
											JOINT RightHandPinky4
											{
												OFFSET -1.546525 0.000005 -0.000003
												CHANNELS 3 Zrotation Yrotation Xrotation
												JOINT RightHandPinkyEnd
												{
													OFFSET -1.945122 -0.157721 0.057211
													CHANNELS 3 Zrotation Yrotation Xrotation
													End Site
													{
														OFFSET 0.000000 0.000000 0.000000
													}
												}
											}
										}
									}
								}
							}
						}
					}
				}
			}
		}
	}
	JOINT LeftLeg
	{
		OFFSET 10.043214 -8.434526 2.595655
		CHANNELS 3 Zrotation Yrotation Xrotation
		JOINT LeftShin
		{
			OFFSET -0.000002 -43.221752 -0.802913
			CHANNELS 3 Zrotation Yrotation Xrotation
			JOINT LeftFoot
			{
				OFFSET 0.000001 -42.155094 -3.481522
				CHANNELS 3 Zrotation Yrotation Xrotation
				JOINT LeftToeBase
				{
					OFFSET -0.000000 -5.059475 13.231529
					CHANNELS 3 Zrotation Yrotation Xrotation
					JOINT LeftToeEnd
					{
						OFFSET -0.009607 -1.647616 6.513017
						CHANNELS 3 Zrotation Yrotation Xrotation
						End Site
						{
							OFFSET 0.000000 0.000000 0.000000
						}
					}
				}
			}
		}
	}
	JOINT RightLeg
	{
		OFFSET -10.047277 -8.295259 2.620317
		CHANNELS 3 Zrotation Yrotation Xrotation
		JOINT RightShin
		{
			OFFSET 0.000000 -43.362209 -0.805556
			CHANNELS 3 Zrotation Yrotation Xrotation
			JOINT RightFoot
			{
				OFFSET 0.000002 -42.117393 -3.478399
				CHANNELS 3 Zrotation Yrotation Xrotation
				JOINT RightToeBase
				{
					OFFSET -0.000000 -5.079609 13.284196
					CHANNELS 3 Zrotation Yrotation Xrotation
					JOINT RightToeEnd
					{
						OFFSET 0.009533 -1.634383 6.460591
						CHANNELS 3 Zrotation Yrotation Xrotation
						End Site
						{
							OFFSET 0.000000 0.000000 0.000000
						}
					}
				}
			}
		}
	}
}
MOTION
Frames: 4
Frame Time: 0.033333
-7.280869 92.687431 1.339412 1.005959 -5.604693 7.505768 2.135719 0.614688 -0.344168 -0.000969 0.792878 -4.205765 0.680819 -1.027177 12.627787 -6.822333 5.800503 4.858791 2.247109 10.321207 -3.447326 -3.176705 11.568514 -14.966421 0.000077 -0.000022 0.000006 0.004063 -0.059126 0.072278 0.740786 -3.808769 -10.654894 -0.739584 3.681819 -10.628910 -8.501523 -8.079581 9.127894 -23.787426 -26.086132 -50.188469 179.548370 -58.250057 -179.218674 19.902319 -10.228394 -30.545242 -5.882100 9.861279 0.702590 -10.936857 -0.360575 7.156196 0.000000 8.774814 -0.000001 -16.765280 18.082428 5.949329 -1.844030 2.498502 -2.507276 -10.163587 4.678940 4.621104 -20.975994 -0.000004 0.000001 -21.226248 2.451692 -3.593993 0.000001 -0.000007 0.000002 -1.362680 2.240796 -0.746323 -21.334887 0.584908 3.008319 -13.821195 -0.000003 0.000002 -23.887129 -0.249078 -0.839480 -61.043568 2.682575 -1.381921 -0.294024 1.679688 0.833255 -14.218190 0.093213 1.300579 -34.211998 -0.287564 0.967170 -20.033175 0.964535 1.212842 -0.000000 -0.000000 -0.000000 -3.440384 0.788232 0.501655 -15.928163 -3.167307 2.999703 -6.338817 -0.000001 0.000001 -18.123411 3.648176 -4.905662 -0.000004 -0.000000 -0.000002 -1.003473 12.818995 6.701947 61.349369 66.260017 6.439157 -179.263489 43.833363 -179.852585 6.022798 0.613606 -2.505727 2.243538 -5.255032 -3.180154 14.282877 -0.826592 6.952496 -0.000001 -12.690590 -0.000001 15.908078 -17.908361 2.738520 1.665663 -1.955919 -2.878296 4.727794 -4.170582 4.993917 11.020513 0.000003 -0.000001 12.109033 -3.735709 -2.866779 0.000000 -0.000000 0.000001 1.291986 -1.928548 -1.498087 14.800113 0.567468 3.865602 14.242554 -1.341734 -6.660648 19.631939 0.143927 -0.648242 49.685776 -0.863960 -6.278953 0.353028 -1.511150 -0.031940 20.222769 3.684308 2.316628 18.787247 0.000005 0.000001 10.751611 -0.479867 1.397905 -0.000000 -0.000001 0.000000 3.273804 0.305947 -0.580110 21.486794 11.830363 2.266132 8.162916 0.000003 0.000001 18.399052 -3.798977 -4.940566 0.000003 0.000000 -0.000001 18.389311 17.065014 -23.574732 -0.330350 -1.235973 24.340618 -21.842522 -1.897168 -2.445700 1.653174 -1.894509 -0.365484 -0.000000 0.000000 0.000002 -19.252335 -11.369897 -15.516428 0.268294 1.088935 31.648516 20.764717 4.964896 -17.084141 -1.445889 1.001422 -1.302815 -0.000000 0.000001 -0.000001 
-7.257006 92.758217 1.272148 1.000243 -5.877256 7.552021 2.174839 0.604541 -0.352948 0.019579 0.734108 -4.206681 0.781676 -1.062168 12.583480 -6.774331 5.767867 4.706858 2.306274 10.433862 -3.433076 -3.264319 11.712823 -14.787466 0.000077 -0.000022 0.000006 0.001848 -0.072037 0.069216 0.741272 -3.813032 -10.668020 -0.741550 3.682327 -10.644369 -8.558894 -8.169061 9.116220 -23.597601 -25.666605 -50.370838 179.428101 -58.618313 -179.078247 20.055935 -10.316685 -30.754032 -5.882102 9.861278 0.702589 -10.936865 -0.360575 7.156198 0.000000 8.774817 -0.000002 -16.777262 18.081310 5.952411 -1.844032 2.498503 -2.507276 -10.163589 4.678939 4.621102 -20.975998 -0.000006 0.000002 -21.226255 2.451693 -3.593992 0.000001 -0.000006 0.000002 -1.362680 2.240796 -0.746323 -21.334896 0.584906 3.008320 -13.821198 -0.000004 0.000002 -23.887133 -0.249079 -0.839480 -61.018654 2.695270 -1.372303 -0.294024 1.679687 0.833255 -14.218195 0.093213 1.300579 -34.212013 -0.287566 0.967171 -20.033180 0.964534 1.212842 -0.000000 0.000000 0.000000 -3.440386 0.788233 0.501655 -15.928171 -3.167307 2.999703 -6.338817 -0.000002 0.000001 -18.123415 3.648175 -4.905661 -0.000005 -0.000000 -0.000001 -0.992417 12.764775 6.630399 60.935127 66.446373 6.196415 -179.206451 44.015469 -179.810150 6.023673 0.638728 -2.588804 2.243540 -5.255034 -3.180156 14.282878 -0.826593 6.952497 -0.000001 -12.690590 -0.000001 15.971160 -17.921907 2.742084 1.665665 -1.955921 -2.878296 4.727795 -4.170584 4.993919 11.020512 0.000004 -0.000001 12.109035 -3.735710 -2.866780 0.000001 0.000000 0.000001 1.291988 -1.928550 -1.498088 14.800113 0.567469 3.865604 14.242553 -1.341736 -6.660649 19.631941 0.143927 -0.648242 49.727055 -0.841345 -6.274679 0.353029 -1.511150 -0.031940 20.222773 3.684305 2.316630 18.787251 0.000002 0.000001 10.751612 -0.479868 1.397905 0.000000 0.000000 0.000000 3.273804 0.305947 -0.580110 21.486794 11.830364 2.266134 8.162916 0.000002 0.000001 18.399052 -3.798981 -4.940568 0.000003 -0.000001 -0.000001 18.385885 17.077211 -23.344038 -0.316974 -1.213564 23.948786 -21.827728 -1.644209 -2.383503 1.654589 -1.893139 -0.343134 0.000000 -0.000000 0.000002 -19.269880 -11.310647 -15.649533 0.270768 1.081267 31.402033 20.835371 5.167812 -16.783375 -1.445843 0.995850 -1.350683 0.000000 0.000000 -0.000001 
-7.247721 92.796890 1.198737 1.009650 -6.120151 7.575809 2.194107 0.587167 -0.354757 0.040284 0.704465 -4.196375 0.882181 -1.099613 12.536587 -6.725863 5.747210 4.567952 2.351117 10.520059 -3.400787 -3.328499 11.812457 -14.589842 0.000077 -0.000023 0.000006 0.005402 -0.078657 0.070034 0.742959 -3.833539 -10.654679 -0.735170 3.664844 -10.632506 -8.584168 -8.259790 9.105982 -23.476456 -25.343651 -50.455479 179.239792 -58.987457 -178.847137 20.117569 -10.411212 -31.095238 -5.882102 9.861279 0.702589 -10.936860 -0.360576 7.156196 -0.000001 8.774813 -0.000001 -16.770508 18.072466 5.960632 -1.844031 2.498502 -2.507276 -10.163590 4.678940 4.621103 -20.975996 -0.000001 0.000002 -21.226250 2.451695 -3.593994 -0.000000 -0.000006 0.000000 -1.362681 2.240797 -0.746323 -21.334894 0.584910 3.008321 -13.821197 -0.000002 0.000002 -23.887133 -0.249077 -0.839483 -60.985054 2.684951 -1.341955 -0.294025 1.679686 0.833255 -14.218190 0.093215 1.300579 -34.212006 -0.287562 0.967170 -20.033180 0.964535 1.212841 -0.000000 -0.000000 -0.000000 -3.440385 0.788232 0.501655 -15.928171 -3.167306 2.999704 -6.338817 -0.000000 0.000001 -18.123415 3.648178 -4.905661 -0.000005 0.000000 -0.000002 -0.971531 12.714002 6.554163 60.689705 66.541328 6.055808 -179.193726 44.162666 -179.739502 5.990381 0.691763 -2.744258 2.243539 -5.255033 -3.180154 14.282873 -0.826593 6.952495 -0.000001 -12.690590 -0.000001 16.023109 -17.939888 2.762538 1.665665 -1.955920 -2.878294 4.727793 -4.170584 4.993917 11.020513 0.000002 -0.000001 12.109029 -3.735709 -2.866780 0.000001 -0.000000 0.000001 1.291984 -1.928548 -1.498087 14.800114 0.567468 3.865604 14.242551 -1.341735 -6.660649 19.631937 0.143924 -0.648244 49.769306 -0.823795 -6.251726 0.353029 -1.511150 -0.031940 20.222769 3.684305 2.316627 18.787245 0.000003 0.000000 10.751610 -0.479868 1.397904 -0.000000 -0.000001 0.000000 3.273803 0.305946 -0.580110 21.486790 11.830361 2.266133 8.162916 0.000003 0.000000 18.399054 -3.798977 -4.940568 0.000003 -0.000001 -0.000001 18.371912 17.095722 -23.123598 -0.297464 -1.198583 23.582317 -21.836447 -1.453318 -2.388926 1.655036 -1.892190 -0.332363 0.000000 -0.000000 0.000002 -19.249279 -11.298546 -15.755212 0.271803 1.078552 31.271156 20.820278 5.389702 -16.699951 -1.446744 0.997569 -1.375974 0.000000 0.000000 -0.000001 
-7.185565 92.832466 1.176604 1.018367 -6.298022 7.593168 2.206434 0.580887 -0.349063 0.062612 0.648788 -4.205676 0.962664 -1.104767 12.516633 -6.686949 5.725482 4.492944 2.363758 10.585560 -3.379129 -3.338158 11.847759 -14.425646 0.000077 -0.000022 0.000006 0.003695 -0.072287 0.071158 0.738437 -3.828996 -10.654468 -0.733186 3.677171 -10.632285 -8.565013 -8.348365 9.074316 -23.411213 -25.113253 -50.487209 179.070862 -59.315178 -178.605774 20.126316 -10.464007 -31.560909 -5.882101 9.861278 0.702590 -10.936857 -0.360574 7.156197 0.000000 8.774812 -0.000000 -16.759586 18.109234 5.992782 -1.844030 2.498503 -2.507276 -10.163589 4.678939 4.621103 -20.975992 -0.000003 0.000001 -21.226250 2.451693 -3.593995 -0.000000 -0.000005 0.000000 -1.362679 2.240797 -0.746323 -21.334887 0.584909 3.008320 -13.821192 -0.000003 0.000001 -23.887125 -0.249077 -0.839481 -60.985744 2.687092 -1.329667 -0.294024 1.679687 0.833255 -14.218190 0.093216 1.300579 -34.211998 -0.287563 0.967167 -20.033178 0.964536 1.212841 -0.000000 0.000000 0.000000 -3.440385 0.788233 0.501655 -15.928164 -3.167305 2.999703 -6.338814 -0.000000 0.000001 -18.123411 3.648177 -4.905662 -0.000004 -0.000000 -0.000001 -0.943727 12.666778 6.463113 60.333939 66.589676 5.742841 -179.201279 44.294952 -179.722397 5.950251 0.730458 -2.884361 2.243538 -5.255033 -3.180155 14.282873 -0.826593 6.952498 -0.000001 -12.690591 -0.000001 16.043816 -17.923737 2.778598 1.665663 -1.955920 -2.878297 4.727792 -4.170582 4.993920 11.020513 0.000002 -0.000001 12.109030 -3.735709 -2.866780 0.000000 0.000000 0.000000 1.291983 -1.928549 -1.498086 14.800109 0.567470 3.865602 14.242551 -1.341735 -6.660650 19.631937 0.143925 -0.648243 49.764088 -0.812575 -6.211528 0.353029 -1.511149 -0.031941 20.222767 3.684308 2.316629 18.787243 0.000004 0.000000 10.751610 -0.479869 1.397904 -0.000000 -0.000002 0.000000 3.273805 0.305947 -0.580110 21.486788 11.830365 2.266132 8.162914 0.000001 0.000002 18.399048 -3.798980 -4.940567 0.000003 -0.000002 -0.000001 18.323782 17.128931 -23.017719 -0.289831 -1.192668 23.456568 -21.825085 -1.322199 -2.430681 1.656640 -1.900227 -0.307475 0.000000 -0.000000 0.000002 -19.305548 -11.281405 -15.791342 0.275493 1.054934 31.095247 20.866114 5.609430 -16.503471 -1.448883 0.989384 -1.387511 0.000000 0.000000 -0.000001 
